<svg xmlns="http://www.w3.org/2000/svg" version="1.1" xmlns:xlink="http://www.w3.org/1999/xlink" xmlns:svgjs="http://svgjs.dev/svgjs" width="1500" height="1500" viewBox="0 0 1500 1500"><rect width="1500" height="1500" fill="#ffffff"></rect><g transform="matrix(0.6666666666666666,0,0,0.6666666666666666,249.39393939393943,600.0576283947493)"><svg viewBox="0 0 396 119" data-background-color="#000000" preserveAspectRatio="xMidYMid meet" height="450" width="1500" xmlns="http://www.w3.org/2000/svg" xmlns:xlink="http://www.w3.org/1999/xlink"><g id="tight-bounds" transform="matrix(1,0,0,1,0.2400000000000091,-0.02285926325055243)"><svg viewBox="0 0 395.52 119.04571852650108" height="119.04571852650108" width="395.52"><g><svg viewBox="0 0 618.2170991704008 186.07427886354557" height="119.04571852650108" width="395.52"><g><rect width="6.8521515774130375" height="135.31450814606603" x="197.90737801860814" y="25.37988535873977" fill="#000000" opacity="1" stroke-width="0" stroke="transparent" fill-opacity="1" class="rect-qz-0" data-fill-palette-color="primary" rx="1%" id="qz-0" data-palette-color="#2ecc40"></rect></g><g transform="matrix(1,0,0,1,222.69709917040086,25.716488612834453)"><svg viewBox="0 0 395.52 134.64130163787667" height="134.64130163787667" width="395.52"><g id="textblocktransform"><svg viewBox="0 0 395.52 134.64130163787667" height="134.64130163787667" width="395.52" id="textblock"><g><svg viewBox="0 0 395.52 75.98218190065775" height="75.98218190065775" width="395.52"><g transform="matrix(1,0,0,1,0,0)"><svg width="395.52" viewBox="-1.0000000000000002 -40.8 224.19 42.349999999999994" height="75.98218190065775" data-palette-color="#2ecc40"><g class="wordmark-text-0" data-fill-palette-color="primary" id="text-0"><path d="M39.4-7.3L39.4-7.3 39.5-7.3Q40-9.35 41.9-15.6L41.9-15.6 48.85-37.6 44.8-38.1 44.8-39.95Q47.55-39.75 50.1-39.75L50.1-39.75Q52.3-39.75 55.5-39.9L55.5-39.9 55.5-38.1 52.2-37.5Q51.4-36.3 50.2-33.05L50.2-33.05 38.85 1.5 37.55 1.5 27.95-26.5 17.45 1.55 16.1 1.5 3.15-37.6-0.9-38.1Q-1.1-38.85-0.9-39.95L-0.9-39.95Q1.85-39.75 6.25-39.75L6.25-39.75Q10.3-39.75 13.5-39.9L13.5-39.9Q13.8-39 13.5-38.1L13.5-38.1 9.35-37.5 15.95-15.35Q17.2-10.85 18.1-6.9L18.1-6.9 18.2-6.9Q19.2-10.2 21.1-15.35L21.1-15.35 26.6-30.55 24.2-37.6 20.15-38.1Q19.95-38.85 20.15-39.95L20.15-39.95Q22.9-39.75 27.1-39.75L27.1-39.75Q30.9-39.75 34.15-39.9L34.15-39.9Q34.45-39 34.15-38.1L34.15-38.1 30-37.5 37.1-15.75Q38.75-10.35 39.4-7.3ZM61.7-6.65L61.7-6.65Q61.7-4.05 62.65-2.98 63.6-1.9 65.65-1.9L65.65-1.9Q67.15-1.9 68.97-2.83 70.8-3.75 72.35-5.5L72.35-5.5 72.35-13.3Q67.2-13 64.45-11.48 61.7-9.95 61.7-6.65ZM72.35-15.1L72.35-15.1 72.35-17.65Q72.35-21.9 71.37-23.83 70.4-25.75 68.15-25.75L68.15-25.75Q65.85-25.75 64.45-24.28 63.05-22.8 62.55-19.25L62.55-19.25Q60.95-18.9 60.2-18.9L60.2-18.9Q58.25-18.9 57.9-20.3L57.9-20.3Q57.9-23.7 60.85-25.7 63.8-27.7 68.2-27.7L68.2-27.7Q73.05-27.7 75.07-25.73 77.1-23.75 77.1-18.65L77.1-18.65 77.1-4.55Q77.1-3.3 77.25-2.4L77.25-2.4 81.2-1.9Q81.4-1.15 81.2 0L81.2 0Q77.65 0.15 73.65 0.7L73.65 0.7Q73.25 0.3 73.15-0.3L73.15-0.3 72.9-3.75Q68.75 1 63.65 1L63.65 1Q60.5 1 58.72-0.8 56.95-2.6 56.95-5.65L56.95-5.65Q56.95-10.25 61.12-12.6 65.3-14.95 72.35-15.1ZM95.5-40.8L95.5-40.8Q102.95-40.8 102.95-34.9L102.95-34.9Q101.9-33.8 97.95-33.85L97.95-33.85Q97.45-39.1 95.4-39.1L95.4-39.1Q93.5-39.1 92.72-36.08 91.95-33.05 91.95-25.05L91.95-25.05 99-25.05Q99.3-24.1 99-23.1L99-23.1 91.95-22.05 91.95-2.8 98-1.8Q98.3-0.8 98 0.2L98 0.2Q94.85 0.05 90.25 0.05L90.25 0.05Q87.55 0.05 83.35 0.15L83.35 0.15Q82.95-0.75 83.35-1.8L83.35-1.8 87-2.6Q87.2-5.25 87.2-8.7L87.2-8.7 87.2-22.55 83.65-23.1Q83.35-24.1 83.65-25.05L83.65-25.05 87.2-25.05 87.2-28.45Q87.2-31.45 88.05-34.18 88.9-36.9 90.87-38.85 92.85-40.8 95.5-40.8ZM114.34-40.8L114.34-40.8Q121.79-40.8 121.79-34.9L121.79-34.9Q120.74-33.8 116.79-33.85L116.79-33.85Q116.29-39.1 114.24-39.1L114.24-39.1Q112.34-39.1 111.57-36.08 110.79-33.05 110.79-25.05L110.79-25.05 117.84-25.05Q118.14-24.1 117.84-23.1L117.84-23.1 110.79-22.05 110.79-2.8 116.84-1.8Q117.14-0.8 116.84 0.2L116.84 0.2Q113.69 0.05 109.09 0.05L109.09 0.05Q106.39 0.05 102.19 0.15L102.19 0.15Q101.79-0.75 102.19-1.8L102.19-1.8 105.84-2.6Q106.04-5.25 106.04-8.7L106.04-8.7 106.04-22.55 102.49-23.1Q102.19-24.1 102.49-25.05L102.49-25.05 106.04-25.05 106.04-28.45Q106.04-31.45 106.89-34.18 107.74-36.9 109.72-38.85 111.69-40.8 114.34-40.8ZM126.09-6.65L126.09-6.65Q126.09-4.05 127.04-2.98 127.99-1.9 130.04-1.9L130.04-1.9Q131.54-1.9 133.37-2.83 135.19-3.75 136.74-5.5L136.74-5.5 136.74-13.3Q131.59-13 128.84-11.48 126.09-9.95 126.09-6.65ZM136.74-15.1L136.74-15.1 136.74-17.65Q136.74-21.9 135.77-23.83 134.79-25.75 132.54-25.75L132.54-25.75Q130.24-25.75 128.84-24.28 127.44-22.8 126.94-19.25L126.94-19.25Q125.34-18.9 124.59-18.9L124.59-18.9Q122.64-18.9 122.29-20.3L122.29-20.3Q122.29-23.7 125.24-25.7 128.19-27.7 132.59-27.7L132.59-27.7Q137.44-27.7 139.47-25.73 141.49-23.75 141.49-18.65L141.49-18.65 141.49-4.55Q141.49-3.3 141.64-2.4L141.64-2.4 145.59-1.9Q145.79-1.15 145.59 0L145.59 0Q142.04 0.15 138.04 0.7L138.04 0.7Q137.64 0.3 137.54-0.3L137.54-0.3 137.29-3.75Q133.14 1 128.04 1L128.04 1Q124.89 1 123.12-0.8 121.34-2.6 121.34-5.65L121.34-5.65Q121.34-10.25 125.52-12.6 129.69-14.95 136.74-15.1Z" fill="#000000" data-fill-palette-color="primary"></path><path d="M164.64-8.1L164.64-8.1 164.64-37.6 160.59-38.15Q160.29-39.05 160.59-39.95L160.59-39.95 167.44-39.8 187.64-39.8 187.69-28.2Q186.59-28 185.84-28.2L185.84-28.2 183.49-37.25 169.99-37.25 169.99-22.25 177.99-22.4 179.14-27.3Q179.89-27.5 180.99-27.3L180.99-27.3Q180.79-24.5 180.79-20.85L180.79-20.85Q180.79-17.5 180.94-14.35L180.94-14.35Q180.04-14.05 179.14-14.35L179.14-14.35 178.04-19.55 169.99-19.7 169.99-2.55 184.99-2.55 187.34-11.6Q188.09-11.8 189.19-11.6L189.19-11.6 189.14 0 167.44 0 160.29 0.15Q159.99-0.75 160.29-1.65L160.29-1.65 164.44-2.2Q164.64-4.75 164.64-8.1ZM222.49-37.25L200.24-2.55 218.99-2.55 221.34-11.6Q222.09-11.8 223.19-11.6L223.19-11.6 223.14 0 194.14 0Q193.79-1.55 194.14-2.55L194.14-2.55 216.69-37.25 199.44-37.25 197.09-28.2Q196.34-28 195.24-28.2L195.24-28.2 195.29-39.8 222.49-39.8Q222.84-38.7 222.49-37.25L222.49-37.25Z" fill="#000000" data-fill-palette-color="secondary"></path></g></svg></g></svg></g><g transform="matrix(1,0,0,1,0,93.91975147503743)"><svg viewBox="0 0 232.209792 40.72155016283925" height="40.72155016283925" width="232.209792"><g transform="matrix(1,0,0,1,0,0)"><svg width="232.209792" viewBox="0 -31.74 233.86 41.019999999999996" height="40.72155016283925" data-palette-color="#ffffff"><path d="M19.38 0L29.93 0Q29.93-1.07 29.15-1.22L29.15-1.22Q28.91-1.27 28.66-1.27L28.66-1.27 27-1.27 15.82-29.3 14.01-29.3 3.08-1.27 0-1.27 0 0 8.69 0Q8.69-1.07 7.91-1.22L7.91-1.22Q7.67-1.27 7.42-1.27L7.42-1.27 5.03-1.27 8.69-10.74 18.9-10.74 22.56-1.27 19.38-1.27 19.38 0ZM13.77-23.97L18.36-12.16 9.23-12.16 13.77-23.97ZM42.33-1.22L42.33-1.22 38.82-1.22 38.82-10.94Q38.82-15.38 41.55-18.07L41.55-18.07Q42.62-19.09 43.36-19.14L43.36-19.14Q44.19-19.14 44.87-17.92L44.87-17.92Q45.65-16.55 46.34-16.36L46.34-16.36Q46.63-16.26 46.92-16.26L46.92-16.26Q48.39-16.26 48.78-17.68L48.78-17.68Q48.87-17.97 48.87-18.26L48.87-18.26Q48.87-20.46 46.63-20.95L46.63-20.95Q46.14-21.04 45.7-21.04L45.7-21.04Q42.77-21.04 40.48-18.55L40.48-18.55Q39.4-17.38 38.77-15.92L38.77-15.92 38.57-20.75 31.49-20.75 31.49-19.53 35.15-19.53 35.15-4.15Q35.15-1.9 33.88-1.46L33.88-1.46Q33.15-1.22 31.49-1.22L31.49-1.22 31.49 0 43.55 0Q43.55-1.07 42.82-1.17L42.82-1.17Q42.62-1.22 42.33-1.22ZM50.09-20.75L50.09-19.53 53.51-19.53 53.51-5.76Q53.85 0.34 59.13 0.54L59.13 0.54Q63.62 0.54 64.74-4.98L64.74-4.98Q64.74-5.03 64.74-5.08L64.74-5.08 63.42-5.32Q62.2-1.27 59.86-0.93L59.86-0.93Q57.22-1.03 57.17-4.69L57.17-4.69 57.17-19.53 64.74-19.53 64.74-20.75 57.17-20.75 57.17-26.42 53.51-25.39 53.51-20.75 50.09-20.75ZM75.48-20.75L75.48-19.53 78.9-19.53 78.9-5.76Q79.24 0.34 84.51 0.54L84.51 0.54Q89 0.54 90.13-4.98L90.13-4.98Q90.13-5.03 90.13-5.08L90.13-5.08 88.81-5.32Q87.59-1.27 85.24-0.93L85.24-0.93Q82.61-1.03 82.56-4.69L82.56-4.69 82.56-19.53 90.13-19.53 90.13-20.75 82.56-20.75 82.56-26.42 78.9-25.39 78.9-20.75 75.48-20.75ZM101.7-1.22L101.7-1.22 99.26-1.22 99.26-11.77Q99.26-16.21 102.33-18.21L102.33-18.21Q103.6-19.04 104.97-19.04L104.97-19.04Q107.95-19.04 109.12-16.26L109.12-16.26Q109.66-14.94 109.66-13.33L109.66-13.33 109.66-4.15Q109.66-1.9 108.58-1.46L108.58-1.46Q107.9-1.22 106.24-1.22L106.24-1.22 106.24 0 116.98 0Q116.98-1.07 116.25-1.17L116.25-1.17Q116.05-1.22 115.76-1.22L115.76-1.22 113.32-1.22 113.32-13.33Q113.32-18.65 109.8-20.56L109.8-20.56Q108.43-21.24 106.87-21.24L106.87-21.24Q103.26-21.24 100.82-18.6L100.82-18.6Q99.79-17.48 99.26-16.06L99.26-16.06 99.26-31.74 91.93-31.74 91.93-30.52 95.59-30.52 95.59-4.15Q95.59-1.9 94.32-1.46L94.32-1.46Q93.59-1.22 91.93-1.22L91.93-1.22 91.93 0 102.92 0Q102.92-1.07 102.18-1.17L102.18-1.17Q101.99-1.22 101.7-1.22ZM130.4-20.02L130.4-20.02Q133.82-20.02 134.95-17.14L134.95-17.14Q135.34-16.21 135.34-15.14L135.34-15.14Q135.34-12.7 132.99-12.16L132.99-12.16Q131.77-11.91 129.53-11.96L129.53-11.96 124.35-12.11Q124.59-17.72 128.01-19.43L128.01-19.43Q129.14-20.02 130.4-20.02ZM138.9-4.69L138.9-4.69 137.68-5.13Q135.97-1.42 132.16-0.93L132.16-0.93Q131.67-0.88 131.24-0.88L131.24-0.88Q126.11-0.88 124.79-6.98L124.79-6.98Q124.4-8.69 124.35-10.74L124.35-10.74 130.21-10.64Q136.17-10.55 137.88-11.77L137.88-11.77Q139.19-12.74 139.19-14.55L139.19-14.55Q139.19-17.87 135.82-19.82L135.82-19.82Q133.43-21.24 130.31-21.24L130.31-21.24Q124.2-21.24 121.57-16.16L121.57-16.16Q120.2-13.53 120.2-10.21L120.2-10.21Q120.2-4.15 124.55-1.22L124.55-1.22Q127.13 0.49 130.45 0.49L130.45 0.49Q135.73 0.49 138.22-3.32L138.22-3.32Q138.61-4 138.9-4.69ZM153.3-1.22L153.3-1.22 149.79-1.22 149.79-10.94Q149.79-15.38 152.52-18.07L152.52-18.07Q153.6-19.09 154.33-19.14L154.33-19.14Q155.16-19.14 155.84-17.92L155.84-17.92Q156.62-16.55 157.31-16.36L157.31-16.36Q157.6-16.26 157.89-16.26L157.89-16.26Q159.36-16.26 159.75-17.68L159.75-17.68Q159.85-17.97 159.85-18.26L159.85-18.26Q159.85-20.46 157.6-20.95L157.6-20.95Q157.11-21.04 156.67-21.04L156.67-21.04Q153.74-21.04 151.45-18.55L151.45-18.55Q150.37-17.38 149.74-15.92L149.74-15.92 149.54-20.75 142.46-20.75 142.46-19.53 146.13-19.53 146.13-4.15Q146.13-1.9 144.86-1.46L144.86-1.46Q144.12-1.22 142.46-1.22L142.46-1.22 142.46 0 154.52 0Q154.52-1.07 153.79-1.17L153.79-1.17Q153.6-1.22 153.3-1.22ZM179.18 0.49L179.18 0.49Q182.94 0.49 183.33-4.05L183.33-4.05Q183.38-4.35 183.38-4.59L183.38-4.59 182.11-4.64Q181.77-1.07 180.2-1.03L180.2-1.03Q178.94-1.12 178.89-3.56L178.89-3.56 178.89-13.87Q178.89-20.85 171.9-21.24L171.9-21.24Q171.46-21.24 171.02-21.24L171.02-21.24Q165.56-21.24 163.7-18.7L163.7-18.7Q163.11-17.87 163.11-17.04L163.11-17.04Q163.11-15.53 164.53-15.28L164.53-15.28Q164.77-15.23 165.02-15.23L165.02-15.23Q166.14-15.23 166.68-16.65L166.68-16.65Q167.36-18.46 167.61-18.8L167.61-18.8Q168.53-20.02 170.49-20.02L170.49-20.02Q175.08-19.73 175.22-14.99L175.22-14.99 175.22-11.91Q163.75-11.91 162.09-7.13L162.09-7.13Q161.8-6.2 161.8-5.13L161.8-5.13Q161.8-1.42 165.07-0.05L165.07-0.05Q166.39 0.49 167.85 0.49L167.85 0.49Q171.42 0.49 173.86-1.95L173.86-1.95Q174.74-2.88 175.18-3.91L175.18-3.91Q175.76 0.44 179.18 0.49ZM169.46-1.46L169.46-1.46Q166.48-1.46 165.8-4.44L165.8-4.44Q165.65-5.13 165.65-5.96L165.65-5.96Q165.65-9.23 169.41-10.11L169.41-10.11Q171.42-10.55 175.22-10.6L175.22-10.6 175.22-6.69Q174.49-3.32 171.66-1.95L171.66-1.95Q170.54-1.46 169.46-1.46ZM195.63 8.06L192.21 8.06 192.21-2.05Q194.9 0.29 198.42 0.49L198.42 0.49Q202.76 0.49 205.69-2.78L205.69-2.78Q208.52-5.96 208.52-10.84L208.52-10.84Q208.52-16.41 205.45-19.29L205.45-19.29Q203.3-21.24 200.22-21.24L200.22-21.24Q195.49-21.24 193.14-17.48L193.14-17.48Q192.56-16.5 192.17-15.43L192.17-15.43 191.92-20.75 184.89-20.75 184.89-19.53 188.55-19.53 188.55 5.13Q188.55 7.37 187.28 7.81L187.28 7.81Q186.55 8.06 184.89 8.06L184.89 8.06 184.89 9.28 196.85 9.28Q196.85 8.2 196.12 8.11L196.12 8.11Q195.92 8.06 195.63 8.06L195.63 8.06ZM198.66-19.29L198.66-19.29Q202.91-19.29 204.03-13.96L204.03-13.96Q204.37-12.35 204.37-10.35L204.37-10.35Q204.37-3.17 200.51-1.27L200.51-1.27Q199.39-0.73 198.07-0.73L198.07-0.73Q194.31-0.73 192.9-4.69L192.9-4.69Q192.17-6.69 192.17-9.42L192.17-9.42Q192.17-15.77 195.44-18.21L195.44-18.21Q196.9-19.29 198.66-19.29ZM215.5 7.76L215.5 7.76Q214.72 7.76 214.33 6.59L214.33 6.59Q213.79 5.13 213.31 4.79L213.31 4.79Q212.87 4.49 212.28 4.49L212.28 4.49Q210.72 4.49 210.47 5.86L210.47 5.86Q210.42 6.05 210.42 6.2L210.42 6.2Q210.42 8.06 212.57 8.89L212.57 8.89Q213.55 9.28 214.62 9.28L214.62 9.28Q218.48 9.28 221.31 4.54L221.31 4.54Q222.48 2.64 223.56 0L223.56 0 230.79-17.82Q231.27-19.19 231.86-19.38L231.86-19.38Q232.2-19.48 232.64-19.48L232.64-19.48Q233.62-19.48 233.76-20.02L233.76-20.02Q233.86-20.31 233.86-20.75L233.86-20.75 226.44-20.75 226.44-19.48 230-19.48 223.75-3.86 217.06-19.48 220.34-19.48 220.34-20.75 210.81-20.75 210.81-19.48 213.21-19.48 222 0Q219.26 6.45 216.87 7.47L216.87 7.47Q216.19 7.76 215.5 7.76Z" opacity="1" transform="matrix(1,0,0,1,0,0)" fill="#000000" class="slogan-text-1" data-fill-palette-color="secondary" id="text-1"></path></svg></g></svg></g></svg></g></svg></g><g><svg viewBox="0 0 179.96980844422848 186.07427886354557" height="186.07427886354557" width="179.96980844422848"><g><svg xmlns="http://www.w3.org/2000/svg" viewBox="8.107920288205253 6.211735796133866 111.7846007202978 115.57626885803268" x="0" y="0" height="186.07427886354557" width="179.96980844422848" class="icon-icon-0" data-fill-palette-color="accent" id="icon-0"><g data-name="Layer 5" fill="#ffffff" data-fill-palette-color="accent"><path d="M85.432 118.979c-0.025-0.155-0.051-0.309-0.075-0.456-1.676-4.809-2.132-13.363-1.218-23.585 3.556-2.34 22.254-16.274 9.947-43.6-0.09-0.21-0.19-0.42-0.29-0.63-2.97-6.36-7.39-12.53-11.66-18.51-1.84-2.57-3.72-5.19-5.49-7.84-1.29-1.92-2.52-3.86-3.63-5.8-3.77-6.55-10.4-7.63-14.97-5.86a9.835 9.835 0 0 0-5.63 5.35c-0.01 0.02-0.02 0.05-0.03 0.07-20.61 1.1-37.29 15.09-36.71 33.84 0.08 2.69 0.55 6.63 0.54 9.21-0.02 9.17-7.95 12.93-8.1 15.85-0.25 4.79 5.37 3.29 7.36 10.07 2.51 8.6-1.1 18.41 10.62 17.8 4.68-0.19 12.28-2 15.54 1.03 2.08 1.93 3.75 10.35 4.4 14.08a2.157 2.157 0 0 0 2.13 1.79h35.2a2.162 2.162 0 0 0 2.08-2.76ZM62.1 95.009a3.108 3.108 0 0 1 2.49-1.23 3.742 3.742 0 0 1 0.8 0.08c3.1 0.61 7.52 4.88 10.12 11.73-7.6-0.26-12.39-3.23-13.84-6.24A3.851 3.851 0 0 1 62.1 95.009Zm-3.14-79.98a8.865 8.865 0 0 1 3.22-0.59 9.931 9.931 0 0 1 8.67 5.37c0.43 0.75 0.87 1.49 1.34 2.23 2.43 3.95 5.21 7.84 7.91 11.62 4.35 6.07 8.85 12.35 11.71 18.71a48.359 48.359 0 0 1 2.67 7.39C99.4 78.028 89.018 88.218 84.383 91.73c1.039-17.967-3.866-42.824-14.2-54.007a1.25 1.25 0 1 0-1.836 1.7c9.8 10.606 14.769 35.782 13.461 53.371-0.455-0.075-1.012-0.18-1.672-0.332-6.37-1.55-21.31-7.7-23.97-31.49a58.4 58.4 0 0 1-0.01-11.38 76.348 76.348 0 0 0-1.83-24.8 8.706 8.706 0 0 1 0.84-6.64 0.607 0.607 0 0 1 0.07-0.1A7.676 7.676 0 0 1 58.956 15.029Z" fill="#000000" data-fill-palette-color="accent"></path><path d="M88.085 26.382c1.805 1.141 4.327 0.584 5.511 0.22a0.831 0.831 0 0 0 0.587-0.929c-0.18-1.225-0.761-3.743-2.566-4.883s-4.328-0.583-5.512-0.219a0.831 0.831 0 0 0-0.587 0.928C85.7 22.725 86.279 25.242 88.085 26.382Z" fill="#000000" data-fill-palette-color="accent"></path><path d="M37.725 12.772c1.189 0.347 3.72 0.866 5.508-0.3s2.332-3.692 2.494-4.92a0.832 0.832 0 0 0-0.6-0.92c-1.19-0.347-3.72-0.866-5.508 0.3s-2.332 3.692-2.494 4.92A0.832 0.832 0 0 0 37.725 12.772Z" fill="#000000" data-fill-palette-color="accent"></path><path d="M118.726 32.044a6.838 6.838 0 0 0-4.679-2.807c-5.921-1.167-9.755 3.018-13.816 7.448a40.951 40.951 0 0 1-7.424 6.859 1.25 1.25 0 0 0 1.372 2.09 42.81 42.81 0 0 0 7.894-7.26c3.882-4.234 6.952-7.579 11.491-6.683a4.5 4.5 0 0 1 3.078 1.734c1.47 2.218 0.551 6.628-0.614 12.212-1.038 4.976-2.33 11.171-2.248 17.843 0.245 19.87-13.844 29.037-27.111 30.991a1.25 1.25 0 0 0 0.18 2.486 1.275 1.275 0 0 0 0.184-0.013c13.657-2.011 29.512-11.991 29.247-33.5a78.172 78.172 0 0 1 2.195-17.3C119.759 39.993 120.773 35.132 118.726 32.044Z" fill="#000000" data-fill-palette-color="accent"></path><path d="M100.285 100.458c-2.747 0.517-5.382 4.065-7.834 10.537a23.069 23.069 0 0 1-5.324 3.983 1.25 1.25 0 0 0 1.253 2.164 25.971 25.971 0 0 0 5.829-4.365c5.743-1.414 9.858-4.067 10.777-6.975a3.815 3.815 0 0 0-0.83-3.819A4.036 4.036 0 0 0 100.285 100.458Zm2.317 4.591c-0.463 1.467-2.777 3.376-6.968 4.733 2.559-5.922 4.524-6.756 5.112-6.867a1.357 1.357 0 0 1 0.233-0.022 1.79 1.79 0 0 1 1.313 0.756A1.32 1.32 0 0 1 102.6 105.049Z" fill="#000000" data-fill-palette-color="accent"></path></g></svg></g></svg></g></svg></g><defs></defs></svg><rect width="395.52" height="119.04571852650108" fill="none" stroke="none" visibility="hidden"></rect></g></svg></g></svg>